<svg xmlns="http://www.w3.org/2000/svg" id="Layer_1" viewBox="0 0 50 100" width="50" height="100"><style>.st0{fill:#b4fff4}</style><path d="M45.6 74.1l-7.3-12.2c1.4-4.7 2.4-10 2.4-15.1 0-.7 0-1.3-.1-2-.7-13.6-5.9-18.5-9.8-22.4-1.8-1.9-3.2-3.4-4.2-5.7v-.1c.6-.1 1.1-.3 1.6-.6.7-.4 1.1-1.2 1.1-2.1l-.2-.5c-.3-.3-1.2-.5-2.8-.6-.1-.9-.1-1.8 0-2.6 0-.4 0-.4.7-.5h.1c.3 0 .6-.2.8-.5.2-.5-.1-1.1-.3-1.5l-.1-.1-.1-.2c-1-2.6-1.6-4.4-1.6-5.4S25.5.4 25.3.2c-.1-.2-.3-.2-.5-.1-.1.1-.6.3-.6 1.8 0 .7-.3 2.2-1.6 5.5v.2l-.1.1c-.2.3-.4.7-.4 1.1 0 .1 0 .3.1.4.1.3.5.5.8.5h.1c.6.1.6.1.7.5.1.5.1 1.1.1 1.6 0 .3 0 .7-.1 1-1.5.1-2.4.3-2.8.6l-.2.5c0 .8.4 1.6 1.1 2.1.5.3 1.1.5 1.6.6l-.1.1c-1 2.3-2.6 3.9-4.4 5.8-3.9 3.9-9.1 8.8-9.8 22.3 0 .7-.1 1.3-.1 2 0 5.2 1.1 10.5 2.4 15.1L4.4 74.1 0 100h5l4.7-16.5 7.8-6.7.3.1.8.3c.2.8.3 1.7.4 2.2.1.5.2 1.5 3.9 1.7V100H27V81.2c3.9-.2 4.1-1.3 4.1-1.7s.2-1.4.4-2.2l.9-.3.2-.1 7.8 6.6L45 100h5l-4.4-25.9z" class="st0"/></svg>